<?xml version="1.0" ?><!DOCTYPE svg  PUBLIC '-//W3C//DTD SVG 1.1//EN'  'http://www.w3.org/Graphics/SVG/1.1/DTD/svg11.dtd'><svg enable-background="new 0 -0.266 32 32" height="32px" overflow="visible" version="1.1" viewBox="0 -0.266 32 32" width="32px" xml:space="preserve" xmlns="http://www.w3.org/2000/svg" xmlns:xlink="http://www.w3.org/1999/xlink"><defs/><path d="M16,0C7.164,0,0,7.164,0,16c0,6.551,3.939,12.18,9.578,14.654c-0.045-1.117-0.01-2.459,0.277-3.674  c0.309-1.299,2.059-8.719,2.059-8.719s-0.51-1.02-0.51-2.531c0-2.371,1.373-4.141,3.084-4.141c1.457,0,2.16,1.094,2.16,2.402  c0,1.461-0.934,3.65-1.414,5.676c-0.4,1.699,0.852,3.082,2.525,3.082c3.031,0,5.074-3.893,5.074-8.506  c0-3.506-2.363-6.131-6.658-6.131c-4.854,0-7.877,3.619-7.877,7.662c0,1.393,0.41,2.377,1.055,3.139  c0.295,0.348,0.336,0.488,0.23,0.891C9.506,20.1,9.33,20.809,9.258,21.09c-0.107,0.404-0.436,0.549-0.803,0.398  c-2.234-0.91-3.275-3.359-3.275-6.111c0-4.545,3.832-9.994,11.436-9.994c6.107,0,10.129,4.42,10.129,9.164  c0,6.277-3.49,10.965-8.633,10.965c-1.729,0-3.354-0.934-3.91-1.992c0,0-0.928,3.686-1.125,4.398  c-0.34,1.232-1.004,2.465-1.609,3.426C12.904,31.77,14.426,32,16,32c8.836,0,16-7.164,16-16S24.836,0,16,0z" fill="#231F20"/></svg>